<svg xmlns="http://www.w3.org/2000/svg" xmlns:xlink="http://www.w3.org/1999/xlink" width="135" height="135" viewBox="0 0 135 135">
  <defs>
    <clipPath id="clip-Classroom_Training">
      <rect width="135" height="135"/>
    </clipPath>
  </defs>
  <g id="Classroom_Training" data-name="Classroom Training" clip-path="url(#clip-Classroom_Training)">
    <g id="Group_78" data-name="Group 78" transform="translate(-697 -560)">
      <path id="Path_92" data-name="Path 92" d="M67.5,0A67.5,67.5,0,1,1,0,67.5,67.5,67.5,0,0,1,67.5,0Z" transform="translate(697 560)" fill="#0066c9"/>
      <g id="Group_85" data-name="Group 85" transform="translate(1343.202 845.018)">
        <path id="Path_93" data-name="Path 93" d="M-567.458-243.205c-1.036,1.053-1.933,1.938-2.8,2.854-.322.341-.512.424-.9.042-1.617-1.577-1.633-1.56-.026-3.164q1.923-1.92,3.844-3.841c.971-.966,1.631-.982,2.578-.041,1.665,1.653,3.3,3.332,4.988,4.965.413.4.352.6-.02.971-1.532,1.536-1.522,1.552-3.037.029-.541-.544-1.061-1.11-1.777-1.86,0,1.716,0,3.179,0,4.642.014,3.291.22,2.982-2.912,3.928-3.542,1.07-7.081,2.149-10.635,3.175-.573.165-.731.386-.727.958.026,3.415-.01,6.83.033,10.245.009.694-.2.817-.836.806-2.035-.036-2.035-.008-2.035-2.081q0-5.167,0-10.334c0-1.223.246-1.551,1.417-1.9,4.052-1.224,8.1-2.457,12.16-3.655.512-.151.713-.336.7-.9C-567.487-239.9-567.458-241.433-567.458-243.205Z" transform="translate(-29.316 -9.117)" fill="#fff"/>
        <path id="Path_94" data-name="Path 94" d="M-393.957-243.188c-1.058,1.069-1.97,1.962-2.846,2.888-.323.341-.507.314-.84-.005-1.642-1.573-1.652-1.561-.05-3.161,1.3-1.3,2.6-2.608,3.907-3.9a1.5,1.5,0,0,1,2.516,0c1.665,1.652,3.306,3.33,4.986,4.966.392.382.432.609,0,.968-.542.452-1,1.284-1.561,1.345-.439.048-.988-.817-1.473-1.293-.55-.541-1.082-1.1-1.787-1.82,0,1.891,0,3.589,0,5.287,0,.436.4.379.654.464q5.261,1.767,10.529,3.514c1.476.492,1.646.729,1.646,2.3,0,3.8-.013,7.6.014,11.4,0,.582-.148.733-.728.729-2.138-.013-2.138.01-2.138-2.156,0-2.88-.035-5.761.023-8.641a1.153,1.153,0,0,0-.957-1.36c-3.522-1.128-7.021-2.325-10.528-3.5-1.135-.38-1.368-.695-1.37-1.862C-393.96-239-393.957-240.981-393.957-243.188Z" transform="translate(-168.594 -9.113)" fill="#fff"/>
        <path id="Path_95" data-name="Path 95" d="M-465.775-255.189c-1.05,1.073-1.95,1.961-2.81,2.887-.342.368-.538.365-.9.007-1.6-1.565-1.61-1.55-.06-3.1,1.323-1.321,2.639-2.65,3.968-3.966a1.481,1.481,0,0,1,2.453-.015c1.688,1.671,3.343,3.374,5.05,5.025.433.419.307.618-.044.97-1.52,1.527-1.512,1.539-3.035.012-.54-.541-1.068-1.094-1.766-1.809v5.947c0,2.248-.181,2.381-2.483,2.078-.507-.067-.363-.371-.363-.626C-465.779-250.154-465.775-252.528-465.775-255.189Z" transform="translate(-113.887 0)" fill="#fff"/>
        <path id="Path_96" data-name="Path 96" d="M-500.467-169.833a4.163,4.163,0,0,0-3.215-3.989c-.46-.116-.939-.159-1.454-.243,2.347-2.664,2.421-5.9.247-8.163a5.715,5.715,0,0,0-7.75-.456,5.543,5.543,0,0,0-2.024,3.647,5.823,5.823,0,0,0,1.847,5.04,4.363,4.363,0,0,0-1.853.283c-.473.232-.644.061-.883-.327a5.586,5.586,0,0,0-5.044-2.785c-.454,0-.907,0-1.482,0,2.867-2.908,3.133-6.518.8-9.229a6.4,6.4,0,0,0-8.6-.989,6.214,6.214,0,0,0-2.647,5.006,6.566,6.566,0,0,0,2.327,5.184c-.208.017-.268.03-.326.026-2.681-.173-4.936.532-6.32,3.049-.091.165-.206.28-.427.172a5.3,5.3,0,0,0-2.074-.4c2.432-3.1,2.388-6.289-.049-8.5a5.725,5.725,0,0,0-7.7.029c-2.418,2.229-2.44,5.426-.01,8.475-3.1.161-4.678,1.82-4.679,4.837q0,5.078,0,10.156c0,1.768.376,2.149,2.123,2.149h46.506c.386,0,.773.011,1.158,0a1.427,1.427,0,0,0,1.542-1.564C-500.447-162.231-500.434-166.032-500.467-169.833ZM-543.238-181.1a2.86,2.86,0,0,1,2.854,2.888,2.861,2.861,0,0,1-2.845,2.807,2.858,2.858,0,0,1-2.852-2.89A2.853,2.853,0,0,1-543.238-181.1Zm5.112,21.395c-1.72-.02-3.44-.008-5.16-.008-1.69,0-3.381-.017-5.07.011-.467.008-.593-.126-.59-.591.021-3.084,0-6.168.016-9.252a1.425,1.425,0,0,1,1.615-1.572q4.092-.018,8.184,0a1.427,1.427,0,0,1,1.6,1.591c.014,3.084-.008,6.168.018,9.252C-537.511-159.773-537.7-159.7-538.127-159.706Zm12.036-25.672a3.573,3.573,0,0,1,3.53,3.594,3.571,3.571,0,0,1-3.593,3.527,3.57,3.57,0,0,1-3.529-3.594A3.56,3.56,0,0,1-526.091-185.379Zm7.848,25.677c-2.642-.029-5.284-.013-7.926-.013-2.612,0-5.225-.017-7.837.014-.548.007-.689-.128-.685-.682.028-3.533.005-7.065.018-10.6a2.828,2.828,0,0,1,3.031-2.991q5.522-.015,11.043,0a2.844,2.844,0,0,1,3.029,3c.013,3.533-.011,7.066.019,10.6C-517.545-159.809-517.707-159.7-518.242-159.7Zm9.182-21.4a2.86,2.86,0,0,1,2.9,2.844,2.86,2.86,0,0,1-2.8,2.852,2.859,2.859,0,0,1-2.9-2.845A2.853,2.853,0,0,1-509.06-181.1Zm5.163,21.4c-1.72-.022-3.44-.009-5.16-.009-1.69,0-3.381-.015-5.07.01-.455.007-.6-.106-.6-.584.022-3.084,0-6.168.016-9.252a1.425,1.425,0,0,1,1.609-1.578q4.092-.019,8.184,0a1.428,1.428,0,0,1,1.6,1.585c.014,3.084-.007,6.168.017,9.252C-503.289-159.791-503.455-159.7-503.9-159.706Z" transform="translate(-52.116 -54.656)" fill="#fff"/>
        <path id="Path_97" data-name="Path 97" d="M-382.023-80.322a3.583,3.583,0,0,0-4.078,2.11q-3.036,6.029-6.042,12.071a3.433,3.433,0,0,1-.653.941q-1.617,1.6-3.213,3.213a3.068,3.068,0,0,1-1.566.859c.684-1.2,1.288-2.257,1.882-3.316a4.174,4.174,0,0,0-1.173-5.737,4.188,4.188,0,0,0-5.8,1.185c-1.591,2.108-3.1,4.284-4.777,6.317a17.8,17.8,0,0,0-3.436,6.637,55.883,55.883,0,0,0-1.719,5.5c-.627,3.651-.982,7.349-1.44,11.029a1.478,1.478,0,0,0,1.642,1.879q6.147.014,12.295,0c1.2,0,1.707-.526,1.713-1.754.008-1.633.025-3.267-.008-4.9a1.868,1.868,0,0,1,.951-1.764c1.72-1.107,3.371-2.323,5.12-3.381a11.072,11.072,0,0,0,3.531-3.529c2.546-3.85,5.364-7.543,6.219-12.25a15.1,15.1,0,0,1,.508-1.7c.887-2.886,1.787-5.768,2.659-8.658A3.594,3.594,0,0,0-382.023-80.322Zm-.12,3.925c-.816,2.628-1.618,5.26-2.424,7.891a13.5,13.5,0,0,0-.458,1.53c-.961,5.347-4.214,9.51-7.122,13.852a2.2,2.2,0,0,1-.678.562c-2.02,1.351-4.02,2.735-6.071,4.038a4.631,4.631,0,0,0-2.355,4.375c.041,1.037,0,2.078.01,3.117,0,.309.035.563-.434.56-3.112-.018-6.224-.009-9.358-.009.382-3.082.653-6.1,1.156-9.079.423-2.511,1.558-4.837,2.268-7.278a8.42,8.42,0,0,1,1.475-2.8c1.932-2.517,3.823-5.066,5.719-7.611a1.412,1.412,0,0,1,1.582-.708,1.291,1.291,0,0,1,.734,1.991c-1.011,1.81-2.058,3.6-3.089,5.4-.427.745-.86,1.487-1.277,2.238a1.36,1.36,0,0,0,.186,1.722,1.349,1.349,0,0,0,1.708.275c1.88-.938,3.787-1.828,5.626-2.84a16.988,16.988,0,0,0,2.531-2.355,15.3,15.3,0,0,0,3.822-5.27c1.567-3.318,3.256-6.579,4.9-9.862.157-.314.27-.674.628-.832a.659.659,0,0,1,.745.124A.834.834,0,0,1-382.143-76.4Z" transform="translate(-157.03 -136.815)" fill="#fff"/>
        <path id="Path_98" data-name="Path 98" d="M-585.424-39.708c-.295-2.235-.535-4.478-.854-6.71a30.255,30.255,0,0,0-.76-5c-.792-2.481-1.634-4.946-2.463-7.415a4.324,4.324,0,0,0-.6-1.278c-2.252-2.984-4.479-5.986-6.735-8.967a4.169,4.169,0,0,0-5.682-1.138,4.171,4.171,0,0,0-1.266,5.716c.6,1.086,1.229,2.162,1.876,3.3-.164.014-.231.04-.276.02a5.882,5.882,0,0,1-1.39-.928,21.648,21.648,0,0,1-5.664-7.841c-1.248-2.781-2.7-5.471-4.069-8.2a3.621,3.621,0,0,0-4.644-2.015,3.614,3.614,0,0,0-2.036,4.7q2.285,7.473,4.58,14.942a5.062,5.062,0,0,0,.649,1.354q2.524,3.768,5.029,7.549a4.464,4.464,0,0,0,1.309,1.3c2.057,1.351,4.08,2.754,6.157,4.073a2.293,2.293,0,0,1,1.23,2.254c-.073,1.511-.022,3.028-.017,4.543,0,1.336.486,1.822,1.822,1.823q6.014.006,12.027,0C-585.761-37.63-585.234-38.272-585.424-39.708Zm-12.367-.763c-.5,0-.407-.3-.408-.583,0-1.129-.008-2.258,0-3.386a4.366,4.366,0,0,0-2.075-3.9c-2.1-1.392-4.19-2.8-6.295-4.189a3.257,3.257,0,0,1-.99-.994,25.248,25.248,0,0,0-1.685-2.51c-2.891-3.523-4.327-7.692-5.51-12-.736-2.683-1.617-5.326-2.431-7.987a4.705,4.705,0,0,1-.193-.684.71.71,0,0,1,.449-.789.672.672,0,0,1,.865.252,4.656,4.656,0,0,1,.383.7c1.907,3.814,3.824,7.623,5.709,11.447a10.357,10.357,0,0,0,1.53,2.156,21.442,21.442,0,0,0,8.355,6,10.534,10.534,0,0,1,1.034.513,1.429,1.429,0,0,0,1.874-.194,1.437,1.437,0,0,0,.113-1.879c-1.345-2.336-2.674-4.682-4.009-7.025-.1-.18-.217-.354-.311-.538A1.245,1.245,0,0,1-601-67.781a1.252,1.252,0,0,1,1.805.323c1.233,1.6,2.433,3.22,3.645,4.834a7.734,7.734,0,0,0,.584.785c3.177,3.253,4.132,7.565,5.244,11.7.832,3.09.9,6.385,1.323,9.664C-591.562-40.479-594.677-40.488-597.791-40.471Z" transform="translate(0 -136.817)" fill="#fff"/>
      </g>
    </g>
  </g>
</svg>
