<svg xmlns="http://www.w3.org/2000/svg" xmlns:xlink="http://www.w3.org/1999/xlink" width="91" height="91" viewBox="0 0 91 91">
  <defs>
    <filter id="Ellipse_15" x="-73" y="-60" width="241" height="241" filterUnits="userSpaceOnUse">
      <feOffset dx="2" dy="15" input="SourceAlpha"/>
      <feGaussianBlur stdDeviation="25" result="blur"/>
      <feFlood flood-color="#71c5c2" flood-opacity="0.122"/>
      <feComposite operator="in" in2="blur"/>
      <feComposite in="SourceGraphic"/>
    </filter>
    <clipPath id="clip-Digital_Health_Go_live_Adoption_and_Early_Live_Support_-_Icon">
      <rect width="91" height="91"/>
    </clipPath>
  </defs>
  <g id="Digital_Health_Go_live_Adoption_and_Early_Live_Support_-_Icon" data-name="Digital Health Go live, Adoption and Early Live Support - Icon" clip-path="url(#clip-Digital_Health_Go_live_Adoption_and_Early_Live_Support_-_Icon)">
    <g id="Group_53" data-name="Group 53" transform="translate(-367 -884)">
      <g transform="matrix(1, 0, 0, 1, 367, 884)" filter="url(#Ellipse_15)">
        <circle id="Ellipse_15-2" data-name="Ellipse 15" cx="45.5" cy="45.5" r="45.5" fill="#60c9e6"/>
      </g>
      <g id="Group_17" data-name="Group 17" transform="translate(222.185 1630.787)">
        <path id="Path_30" data-name="Path 30" d="M416.33-581.514c-.136.531-.251,1.068-.414,1.591a9.753,9.753,0,0,1-1.411,2.76q-3.376,4.739-6.74,9.487a2.578,2.578,0,0,1-.259.328.892.892,0,0,1-1.148.136.91.91,0,0,1-.346-1.145,2.746,2.746,0,0,1,.289-.475c2.145-3.025,4.268-6.066,6.449-9.065a8.7,8.7,0,0,0,1.727-5.378c-.039-4.552-.01-9.1-.014-13.657a1.258,1.258,0,0,0-1.851-1.252,1.365,1.365,0,0,0-.665,1.34c.005,3.682,0,7.365.005,11.047a6.9,6.9,0,0,1-.593,2.892,7.125,7.125,0,0,1-1.344,1.943l-4.153,4.412a1.263,1.263,0,0,1-.594.43.884.884,0,0,1-.993-.329.872.872,0,0,1-.041-1.041,2.73,2.73,0,0,1,.355-.429q2.056-2.193,4.115-4.384a1.552,1.552,0,0,0,.184-2.075,1.317,1.317,0,0,0-1.734-.437,30.719,30.719,0,0,0-5.405,3.936,12.452,12.452,0,0,0-3.228,6.529c-.414,2.13-.876,4.251-1.323,6.375a1,1,0,0,1-1.1.9.914.914,0,0,1-.745-1.151c.639-2.953,1.057-5.959,1.971-8.844a13.375,13.375,0,0,1,5.571-7.172c.877-.586,1.75-1.177,2.626-1.766a3.4,3.4,0,0,1,4.564.108v-.523q0-5.267,0-10.534a3.112,3.112,0,0,1,2.152-3.1,3.127,3.127,0,0,1,4.008,2.3c.016.072-.009.159.083.2Z" transform="translate(-202.143 -110.358)" fill="#fff"/>
        <path id="Path_31" data-name="Path 31" d="M363.9-725.162a1.151,1.151,0,0,1,.751,1.3c-.026.323.007.65-.008.974a.952.952,0,0,1-.915.979.941.941,0,0,1-.94-.952c-.021-.448,0-.9-.007-1.346s.314-.674.56-.958Z" transform="translate(-173.399)" fill="#fff"/>
        <path id="Path_32" data-name="Path 32" d="M172.69-585.843a3.362,3.362,0,0,1,4.493-.165,46,46,0,0,1,4.292,3.033,13.931,13.931,0,0,1,4.546,8.02c.44,2.173.907,4.34,1.36,6.51a2.471,2.471,0,0,1,.056.414.934.934,0,0,1-.77,1.006.907.907,0,0,1-1.018-.692c-.211-.841-.374-1.695-.556-2.543-.368-1.713-.708-3.432-1.108-5.136a11.716,11.716,0,0,0-5.034-7.175c-.986-.674-1.98-1.337-2.973-2a1.443,1.443,0,0,0-2.015.135,1.571,1.571,0,0,0,.083,2.153q2.1,2.249,4.212,4.485a1.2,1.2,0,0,1,.424.8.865.865,0,0,1-.47.843.848.848,0,0,1-.961-.051,2.822,2.822,0,0,1-.377-.343c-1.355-1.435-2.7-2.88-4.062-4.306a6.893,6.893,0,0,1-1.994-5c.023-3.636.005-7.272.008-10.908a1.531,1.531,0,0,0-.315-1.091,1.209,1.209,0,0,0-1.31-.381,1.2,1.2,0,0,0-.878,1.04,2.73,2.73,0,0,0-.013.419q0,6.969,0,13.938a7.691,7.691,0,0,0,1.439,4.579c.485.683.973,1.364,1.454,2.05a1,1,0,0,1,.219.952.887.887,0,0,1-1.52.371c-1.425-1.891-2.968-3.73-3.33-6.195a10.467,10.467,0,0,1-.126-1.53q.005-7.132,0-14.264a3.146,3.146,0,0,1,1.956-3.05,3.1,3.1,0,0,1,3.517.839,3.224,3.224,0,0,1,.772,2.233q-.007,5.221,0,10.442Z" transform="translate(0 -110.405)" fill="#fff"/>
        <path id="Path_33" data-name="Path 33" d="M227.825-348.564a.821.821,0,0,1,.549-.7.8.8,0,0,1,.978.177,14.533,14.533,0,0,1,1.611,2.266.866.866,0,0,1-.285,1.118.846.846,0,0,1-1.148-.062,17.79,17.79,0,0,1-1.637-2.305A.932.932,0,0,1,227.825-348.564Z" transform="translate(-54.211 -331.901)" fill="#fff"/>
        <path id="Path_34" data-name="Path 34" d="M319.524-708.757a.9.9,0,0,1,1.378-.812,4.866,4.866,0,0,1,1.306,1.305.813.813,0,0,1-.121,1.068.806.806,0,0,1-1.054.2,4.748,4.748,0,0,1-1.429-1.437A.852.852,0,0,1,319.524-708.757Z" transform="translate(-135.196 -13.642)" fill="#fff"/>
        <path id="Path_35" data-name="Path 35" d="M397.85-707.6a2.979,2.979,0,0,1,1.9-1.88.873.873,0,0,1,.79.482.808.808,0,0,1-.037.92,6.505,6.505,0,0,1-1.239,1.244.811.811,0,0,1-.956.034A.869.869,0,0,1,397.85-707.6Z" transform="translate(-204.371 -13.845)" fill="#fff"/>
        <path id="Path_36" data-name="Path 36" d="M212.093-372.505a.919.919,0,0,1,.937.894.947.947,0,0,1-.941.951.938.938,0,0,1-.907-.935A.9.9,0,0,1,212.093-372.505Z" transform="translate(-39.512 -311.456)" fill="#fff"/>
        <path id="Path_37" data-name="Path 37" d="M364.686-488.118a.959.959,0,0,1-.913.928.957.957,0,0,1-.945-.943.939.939,0,0,1,.936-.9A.937.937,0,0,1,364.686-488.118Z" transform="translate(-173.441 -208.545)" fill="#fff"/>
        <path id="Path_38" data-name="Path 38" d="M271.222-664.684a4.363,4.363,0,0,0-2.565-4.1,12.452,12.452,0,0,0-2.093-.609c-.132-.038-.331.03-.366-.2-.029-.2.119-.271.235-.366a3.96,3.96,0,0,0,1.511-2.786,17,17,0,0,0,0-2.933,4.143,4.143,0,0,0-6.6-3.006c-.379.282-.364-.08-.447-.234a5.256,5.256,0,0,0-4.86-2.97,5.2,5.2,0,0,0-4.815,2.956c-.188.349-.273.4-.608.157a4.152,4.152,0,0,0-6.269,2.115,10.626,10.626,0,0,0-.24,2.907,4.361,4.361,0,0,0,1.638,3.863.312.312,0,0,1,.143.318c-.03.172-.178.142-.292.17-.376.092-.753.184-1.129.273a4.412,4.412,0,0,0-3.305,2.783,7.979,7.979,0,0,0-.291,2.992c0,.875.342,1.212,1.21,1.214,1.2,0,2.393.018,3.589-.01.367-.009.425.1.416.44-.025,1.009-.014,2.02-.008,3.03,0,.808.356,1.172,1.159,1.176,1.725.008,3.449,0,5.174,0a1.8,1.8,0,0,0,.367-.045.872.872,0,0,0,.756-.956.887.887,0,0,0-.836-.845,2.783,2.783,0,0,0-.6-.012c-.335.039-.469-.053-.444-.422a12.273,12.273,0,0,0,0-1.537.928.928,0,0,0-.94-.906.945.945,0,0,0-.906.9c-.017.169,0,.342-.009.512-.029.474.211,1.141-.1,1.372s-.951.06-1.445.084c-.249.012-.319-.079-.314-.32.014-.7-.016-1.4.01-2.1a3.882,3.882,0,0,1,3.092-3.807c.692-.172,1.392-.31,2.078-.5.287-.081.4-.022.513.247.456,1.084.943,2.156,1.409,3.236.2.46.426.877,1.015.871s.8-.432,1-.891c.46-1.066.944-2.122,1.392-3.193.122-.292.245-.346.546-.26.67.19,1.356.324,2.033.49a3.859,3.859,0,0,1,2.864,2.474,6.128,6.128,0,0,1,.249,2.3c-.005.463.156,1.085-.079,1.348-.271.3-.907.053-1.381.1-.346.038-.413-.109-.4-.418.024-.5.022-.995,0-1.491a.94.94,0,0,0-.941-.956.945.945,0,0,0-.912.939c-.019.31-.006.621-.006.932,0,.957,0,.956-.934.99a2.268,2.268,0,0,0-.232.018.893.893,0,0,0-.8,1.014c.051.515.445.822,1.1.83.886.01,1.771,0,2.657,0,.855,0,1.709,0,2.564,0s1.219-.353,1.222-1.208c0-1.025.014-2.051-.008-3.076-.006-.3.074-.36.358-.357,1.227.016,2.455.009,3.682.006.834,0,1.181-.351,1.188-1.193C271.227-663.783,271.235-664.234,271.222-664.684Zm-9.381-11.876a2.347,2.347,0,0,1,2.363-1.055,2.356,2.356,0,0,1,1.844,1.754c.083.331-.012.406-.316.375a5.578,5.578,0,0,0-.558,0,7.612,7.612,0,0,1-3.209-.633C261.7-676.245,261.715-676.352,261.841-676.56Zm-.314,2.273a10.192,10.192,0,0,0,4.349.661c.181-.005.226.056.239.235a2.357,2.357,0,0,1-2.021,2.485,2.276,2.276,0,0,1-2.569-2.04A7.316,7.316,0,0,1,261.527-674.287Zm-9.037-2.33a3.578,3.578,0,0,1,2.8-3.338,3.578,3.578,0,0,1,3.94,1.87,3.473,3.473,0,0,1,.335,1.038c-.5-.292-.946-.563-1.4-.823a.929.929,0,0,0-1.368.176,4.715,4.715,0,0,1-4.109,1.388C252.426-676.321,252.487-676.469,252.49-676.617Zm-4.751-.962a2.308,2.308,0,0,1,2.448.932c.184.263.24.4-.136.558a8.337,8.337,0,0,1-4.036.562A2.259,2.259,0,0,1,247.739-677.58Zm-1.772,4.182c.025-.288.191-.226.346-.224a11.084,11.084,0,0,0,3.364-.356c.074-.022.149-.042.222-.067.7-.236.7-.236.7.487a2.369,2.369,0,0,1-1.687,2.577A2.337,2.337,0,0,1,245.968-673.4Zm2.422,7.008a5.4,5.4,0,0,0-1.7,2.06.483.483,0,0,1-.522.333c-1.025-.019-2.05-.017-3.074,0-.276,0-.367-.057-.371-.355a2.659,2.659,0,0,1,2.352-3.005c.618-.144,1.237-.287,1.851-.448.586-.154.775-.365.818-.966.017-.237.1-.288.306-.265a1.922,1.922,0,0,0,.464,0c.226-.031.289.052.295.274a.949.949,0,0,0,.843.959c.377.085.751.186,1.254.312A6.886,6.886,0,0,0,248.389-666.389Zm2.559-3.018c-.12-.03-.252-.027-.278-.19-.023-.146.066-.229.171-.3a.45.45,0,0,0,.035-.03c.2-.17.388-.465.593-.476.228-.012.331.359.506.548.326.353.692.657,1.048.975C252.331-669.1,251.634-669.235,250.948-669.408Zm6.2,1.6a1.441,1.441,0,0,1-.055.456c-.338.758-.669,1.52-1.048,2.382-.38-.869-.716-1.629-1.044-2.393a1.221,1.221,0,0,1-.056-.316c-.043-.319.006-.49.413-.4a3.346,3.346,0,0,0,1.476-.009C257.084-668.14,257.175-668.063,257.145-667.81Zm.432-2.428a3.568,3.568,0,0,1-5.067-2.817c-.036-.431-.177-.973.02-1.273.218-.332.8-.1,1.214-.112a5.835,5.835,0,0,0,3.687-1.317.419.419,0,0,1,.6-.031c.253.177.53.319.8.476.8.472.8.472.8,1.375A3.637,3.637,0,0,1,257.577-670.238Zm1.5,1.353a6.571,6.571,0,0,0,1.4-1.415c.1-.155.182-.169.315-.027.158.167.35.3.513.467.2.2.213.369-.119.448C260.478-669.247,259.771-669.1,259.073-668.885Zm10.289,4.691c-.011.182-.109.191-.242.191-1.117,0-2.234,0-3.351,0a.3.3,0,0,1-.315-.207,5.68,5.68,0,0,0-3.983-3.195,2.038,2.038,0,0,1-.241-.1c.473-.118.879-.217,1.283-.319a.9.9,0,0,0,.761-.877c.012-.29.093-.384.376-.333a1.42,1.42,0,0,0,.417,0c.2-.024.257.035.273.245a.92.92,0,0,0,.846.994c.734.189,1.478.339,2.209.539A2.666,2.666,0,0,1,269.362-664.194Z" transform="translate(-65.724 -38.216)" fill="#fff"/>
      </g>
    </g>
  </g>
</svg>
