<svg xmlns="http://www.w3.org/2000/svg" xmlns:xlink="http://www.w3.org/1999/xlink" width="91" height="91" viewBox="0 0 91 91">
  <defs>
    <clipPath id="clip-EPR_and_Digital_Health_Program_and_Project_Management_-_Icon">
      <rect width="91" height="91"/>
    </clipPath>
  </defs>
  <g id="EPR_and_Digital_Health_Program_and_Project_Management_-_Icon" data-name="EPR and Digital Health Program and Project Management - Icon" clip-path="url(#clip-EPR_and_Digital_Health_Program_and_Project_Management_-_Icon)">
    <g id="Group_54" data-name="Group 54" transform="translate(-251 -881)">
      <circle id="Ellipse_14" data-name="Ellipse 14" cx="45.5" cy="45.5" r="45.5" transform="translate(251 881)" fill="#18538c"/>
      <g id="Group_16" data-name="Group 16" transform="translate(-633.714 1677.892)">
        <path id="Path_27" data-name="Path 27" d="M1113.77-770.745a.926.926,0,0,1-.947.93.953.953,0,0,1-.913-.929.934.934,0,0,1,.959-.921A.906.906,0,0,1,1113.77-770.745Z" transform="translate(-180.098 -3.265)" fill="#fff"/>
        <path id="Path_28" data-name="Path 28" d="M998.095-727.763a3.292,3.292,0,0,0-4.613-2.916c-.306.129-.368.043-.482-.207a3.3,3.3,0,0,0-5.154-1.205c-.25.207-.39.222-.583-.018a1.211,1.211,0,0,0-.212-.169c.031-.036.046-.068.072-.082.109-.058.222-.108.332-.164a15.929,15.929,0,0,0,9.054-13.111,15.463,15.463,0,0,0-2.736-10.595.489.489,0,0,1-.046-.61,3.323,3.323,0,0,0,.367-2.256,3.551,3.551,0,0,0-4.252-2.865,3.55,3.55,0,0,0-2.636,4.469,3.508,3.508,0,0,0,4.546,2.329.456.456,0,0,1,.659.228,14.182,14.182,0,0,1,2.191,9.646,14.221,14.221,0,0,1-10.473,12.04c-.36.1-.469.078-.462-.334.025-1.383.021-2.767,0-4.151a.542.542,0,0,1,.4-.6,9.535,9.535,0,0,0,5.774-9.805,9.534,9.534,0,0,0-11.3-8.323,9.586,9.586,0,0,0-7.634,8.348,9.5,9.5,0,0,0,5.73,9.742.532.532,0,0,1,.374.585q-.017,6.389-.008,12.779v.371c-.187-.047-.2-.185-.264-.28-.338-.539-.653-1.093-1.007-1.62a3.4,3.4,0,0,0-3.575-1.445,3.46,3.46,0,0,0-2.339,4.994c1.072,2.2,2.173,4.386,3.25,6.584a1.956,1.956,0,0,0,.716.87h.56a.978.978,0,0,0,.662-1.48c-.053-.13-.118-.254-.18-.379-.243-.487-.489-.972-.73-1.46-.838-1.7-1.73-3.376-2.5-5.11a1.437,1.437,0,0,1,.6-1.89,1.448,1.448,0,0,1,1.87.437,3.487,3.487,0,0,1,.2.312c.83,1.351,1.65,2.708,2.475,4.062a3.174,3.174,0,0,0,.365.54,1.031,1.031,0,0,0,.994.389,1.057,1.057,0,0,0,.843-.781,3.683,3.683,0,0,0,.1-1.063q0-10.027,0-20.055c0-.2-.006-.4.005-.606a1.308,1.308,0,0,1,1.254-1.263,1.313,1.313,0,0,1,1.339,1.178,5.112,5.112,0,0,1,.017.652q0,8.325,0,16.65a2.91,2.91,0,0,0,.042.743,1.027,1.027,0,0,0,.839.836,1.019,1.019,0,0,0,1.065-.422,1.357,1.357,0,0,0,.194-.848c0-1.43-.012-2.861.006-4.291a1.38,1.38,0,0,1,1.32-1.47,1.4,1.4,0,0,1,1.362,1.34,5.122,5.122,0,0,1,.021.652c0,1.461-.015,2.923.01,4.384a.99.99,0,0,0,.856,1.012,1.049,1.049,0,0,0,1.111-.595,1.761,1.761,0,0,0,.164-.86q0-1.912,0-3.824c0-.3-.014-.591.01-.886a1.361,1.361,0,0,1,.975-1.184,1.273,1.273,0,0,1,1.36.494,1.465,1.465,0,0,1,.272.966c0,1.57-.014,3.141.006,4.711a1.133,1.133,0,0,0,1.1,1.257c.6-.009,1.024-.507,1.034-1.252.011-.839,0-1.679,0-2.518a2.923,2.923,0,0,1,.07-.741,1.315,1.315,0,0,1,1.333-1.018,1.349,1.349,0,0,1,1.259,1.059,3.306,3.306,0,0,1,.046.743q0,5.2,0,10.4c0,.763.137.955.789,1.18h.56a1.151,1.151,0,0,0,.645-.99C998.114-720.27,998.161-724.017,998.095-727.763Zm-7.507-29.064a1.674,1.674,0,0,1-1.672-1.646,1.692,1.692,0,0,1,1.671-1.7,1.66,1.66,0,0,1,1.68,1.677A1.644,1.644,0,0,1,990.588-756.827Zm-8.243,11.114a.366.366,0,0,1-.563.152,3.133,3.133,0,0,0-2.865-.01.317.317,0,0,1-.487-.13,2.325,2.325,0,0,1-.2-2.464,2.321,2.321,0,0,1,2.159-1.348,2.328,2.328,0,0,1,2.142,1.332A2.343,2.343,0,0,1,982.344-745.713Zm1.13,2.034a.525.525,0,0,1,.134-.648,4.262,4.262,0,0,0-2.236-6.934,4.265,4.265,0,0,0-4.6,1.877,4.226,4.226,0,0,0,.331,4.989.555.555,0,0,1,.116.691,3.18,3.18,0,0,0-.214,1.37c0,.667,0,1.335,0,2.052a7.51,7.51,0,0,1-4.132-8.315,7.678,7.678,0,0,1,7.685-6.172,7.731,7.731,0,0,1,7.41,6.509,7.6,7.6,0,0,1-4.29,8c0-.739-.005-1.464,0-2.188A2.919,2.919,0,0,0,983.474-743.679Z" transform="translate(-50.94 -11.984)" fill="#fff"/>
        <path id="Path_29" data-name="Path 29" d="M929.469-774.422c-.042-.577-.5-.895-1.216-.839a17.167,17.167,0,0,0-2.891.474A16.238,16.238,0,0,0,916-750.05a.645.645,0,0,1,.053.779,3.49,3.49,0,0,0,.576,3.977,3.56,3.56,0,0,0,3.888.889,3.532,3.532,0,0,0,2.24-3.294,3.51,3.51,0,0,0-4.682-3.344c-.369.131-.5.027-.682-.257a14.183,14.183,0,0,1-2.18-9.6,14.358,14.358,0,0,1,13.2-12.5C929.13-773.454,929.513-773.824,929.469-774.422Zm-10.264,25.045a1.648,1.648,0,0,1,1.691,1.659,1.662,1.662,0,0,1-1.67,1.688,1.691,1.691,0,0,1-1.682-1.69A1.676,1.676,0,0,1,919.205-749.377Z" transform="translate(0)" fill="#fff"/>
      </g>
    </g>
  </g>
</svg>
