<svg xmlns="http://www.w3.org/2000/svg" xmlns:xlink="http://www.w3.org/1999/xlink" width="135" height="135" viewBox="0 0 135 135">
  <defs>
    <clipPath id="clip-Testing">
      <rect width="135" height="135"/>
    </clipPath>
  </defs>
  <g id="Testing" clip-path="url(#clip-Testing)">
    <g id="Group_82" data-name="Group 82" transform="translate(-1526 -560)">
      <circle id="Ellipse_24" data-name="Ellipse 24" cx="67.5" cy="67.5" r="67.5" transform="translate(1526 560)" fill="#71c5c2"/>
      <g id="Group_74" data-name="Group 74" transform="translate(1551 586)">
        <path id="Path_52" data-name="Path 52" d="M1848,101.162a2.085,2.085,0,0,1,1.956-.717c.453.039.912.007,1.459.007V99.311q0-21.326,0-42.651a5.79,5.79,0,0,1,4.349-5.979,8.981,8.981,0,0,1,1.86-.22c.786-.036,1.576-.009,2.334-.009a14.6,14.6,0,0,1-.261-2.524,4.862,4.862,0,0,1,2.805-4.13q6.542-3.458,13.075-6.929c3.4-1.8,6.8-3.587,10.186-5.4a8.306,8.306,0,0,1,8.213-.054c1.014.53,2.028,1.063,3.031,1.613a1.232,1.232,0,1,1-1.115,2.173c-1.069-.542-2.118-1.125-3.185-1.672a5.737,5.737,0,0,0-5.571,0Q1875.353,39.757,1863.583,46a2.541,2.541,0,0,0-.027,4.588q11.813,6.255,23.625,12.51a5.551,5.551,0,0,0,5.342.062c1.991-1.009,3.952-2.073,6.014-3.159-.962-1.1-1.869-2.144-2.78-3.183q-3.184-3.631-6.37-7.26c-.09-.1-.181-.2-.267-.31a1.268,1.268,0,0,1,.029-1.885,1.253,1.253,0,0,1,1.807.263c1.27,1.426,2.521,2.87,3.78,4.306,1.995,2.274,3.991,4.548,6.031,6.873,1.107-.581,2.188-1.142,3.264-1.713,3.973-2.106,7.936-4.23,11.921-6.314a2.62,2.62,0,0,0,0-4.955q-7.67-4.033-15.32-8.1c-.877-.464-1.175-1.162-.8-1.844.356-.647,1.078-.782,1.93-.331q7.771,4.106,15.534,8.226a4.979,4.979,0,0,1,2.567,6.278c-.03.1-.051.206-.1.4.8,0,1.562,0,2.32,0,3.914.009,6.338,2.419,6.339,6.323q.005,21.243,0,42.487v1.19h1.493c1.626,0,1.959.294,1.909,1.889a20.725,20.725,0,0,1-.323,4.136,7.717,7.717,0,0,1-7.232,5.847c-.3.015-.6.026-.9.026q-33.441,0-66.882.01a7.973,7.973,0,0,1-7.587-4.334,16.593,16.593,0,0,1-.907-2.606Zm5.871-.77h72.066c.014-.275.033-.491.033-.707q0-21.573,0-43.147a3.388,3.388,0,0,0-3.642-3.625c-1.528-.015-3.056-.005-4.585,0a1.48,1.48,0,0,0-.642.066c-1.925.992-3.838,2.006-5.755,3.013l.039.193h.855q4.338,0,8.678,0c1.445,0,1.778.337,1.779,1.788q0,18.708,0,37.416c0,1.447-.338,1.787-1.781,1.788q-25.3,0-50.6,0a3.767,3.767,0,0,1-.813-.057,1.126,1.126,0,0,1-.956-1.241,1.113,1.113,0,0,1,1.081-1.13c.324-.033.654-.025.981-.025h49.559V58.69h-10.922c0,1.351-.005,2.654,0,3.957.026,5.246-2.271,9.028-7.063,11.251-.177.082-.446.261-.442.387.026.906-.232,1.829.319,2.7.771,1.221,1.478,2.484,2.167,3.753a3.674,3.674,0,0,1-.511,4.328,4.178,4.178,0,0,1-3.424,1.207c-3.333-.044-5.026-2.965-3.372-5.87.634-1.113,1.331-2.2,1.9-3.342a12.472,12.472,0,0,0,.6-2.131c-.487.113-.7.155-.909.212a32.955,32.955,0,0,1-19.245-.622c-6.19-2.014-8.943-7-8.685-12.108.062-1.22.01-2.446.01-3.721h-10.941V94.721h.932c1.419,0,2.839-.016,4.257.019a1.132,1.132,0,0,1,1.2,1.174,1.191,1.191,0,0,1-1.15,1.245,3.743,3.743,0,0,1-.491.017c-1.856,0-3.711,0-5.567,0-1.329,0-1.69-.371-1.69-1.712q0-18.79,0-37.579c0-1.339.357-1.7,1.7-1.7q4.38-.007,8.76,0h.848a11.977,11.977,0,0,0-1.578-1.061,13.861,13.861,0,0,0-8.958-2.277c-2.437.12-4.093,1.5-4.081,4.1.067,14.136.032,28.273.032,42.41Zm75.435,2.553c-.177-.014-.313-.033-.448-.033q-14.079,0-28.157-.013c-.51,0-.682.188-.832.653a5.588,5.588,0,0,1-5.21,4.033q-4.744.117-9.493,0a5.541,5.541,0,0,1-5.138-3.9.934.934,0,0,0-1.069-.792q-13.833.033-27.666.017c-.26,0-.522.031-.767.046a5.807,5.807,0,0,0,6.051,6.974c22.236-.071,44.472-.034,66.707-.042a8.086,8.086,0,0,0,1.866-.16C1928.126,109.017,1929.747,106.373,1929.306,102.945Zm-56.251-44.539c0,1.784-.055,3.421.01,5.054a8.5,8.5,0,0,0,5.268,8.011,29.077,29.077,0,0,0,20.392,1.067c.5-.149.538-.413.536-.83-.01-2.565-.005-5.13-.005-7.7V62.45c-.364.17-.631.282-.885.417-1.495.789-2.98,1.594-4.48,2.372a8.133,8.133,0,0,1-7.845.043c-1.456-.745-2.892-1.527-4.337-2.293Zm33.577.095a22.132,22.132,0,0,1-2.918,1.506c-1.675.586-2.162,1.613-2.047,3.357.174,2.626.045,5.271.045,7.907.114.007.173.028.215.01a3.732,3.732,0,0,0,.436-.222,8.19,8.19,0,0,0,4.218-6.108A55.583,55.583,0,0,0,1906.631,58.5Zm-9.147,44.467h-15.123a3.065,3.065,0,0,0,2.735,2.133q4.819.11,9.644,0A3.083,3.083,0,0,0,1897.484,102.968Zm3-23.83c-.517.9-.985,1.691-1.438,2.495-.7,1.235-.164,2.163,1.24,2.177.245,0,.492.014.735-.006a1.235,1.235,0,0,0,1.075-1.823C1901.628,81.038,1901.063,80.142,1900.487,79.138Z" transform="translate(-1848 -30.361)" fill="#fff" stroke="#fff" stroke-width="0.5"/>
        <path id="Path_53" data-name="Path 53" d="M1917.29,243.865q5.813,0,11.626,0a4.2,4.2,0,0,1,.9.051c.57.126.992.531.888,1.09a2.37,2.37,0,0,1-.776,1.189c-.2.176-.625.12-.949.12q-11.748.008-23.5,0c-.323,0-.754.05-.947-.127-.345-.317-.775-.807-.746-1.193s.535-.787.916-1.068c.2-.148.582-.062.881-.062Q1911.435,243.862,1917.29,243.865Z" transform="translate(-1888.468 -185.235)" fill="#fff" stroke="#fff" stroke-width="0.5"/>
        <path id="Path_54" data-name="Path 54" d="M1912.945,227.51q-3.923,0-7.845,0c-.966,0-1.528-.439-1.553-1.184-.026-.774.567-1.268,1.56-1.268q7.886-.006,15.773,0c.971,0,1.519.437,1.541,1.194.023.8-.531,1.257-1.548,1.259Q1916.909,227.515,1912.945,227.51Z" transform="translate(-1888.296 -171.604)" fill="#fff" stroke="#fff" stroke-width="0.5"/>
      </g>
    </g>
  </g>
</svg>
