<svg xmlns="http://www.w3.org/2000/svg" xmlns:xlink="http://www.w3.org/1999/xlink" width="91" height="91" viewBox="0 0 91 91">
  <defs>
    <filter id="Ellipse_14" x="-73" y="-60" width="241" height="241" filterUnits="userSpaceOnUse">
      <feOffset dx="2" dy="15" input="SourceAlpha"/>
      <feGaussianBlur stdDeviation="25" result="blur"/>
      <feFlood flood-color="#18538c" flood-opacity="0.122"/>
      <feComposite operator="in" in2="blur"/>
      <feComposite in="SourceGraphic"/>
    </filter>
    <clipPath id="clip-Training">
      <rect width="91" height="91"/>
    </clipPath>
  </defs>
  <g id="Training" clip-path="url(#clip-Training)">
    <g id="Group_54" data-name="Group 54" transform="translate(-251 -881)">
      <g transform="matrix(1, 0, 0, 1, 251, 881)" filter="url(#Ellipse_14)">
        <circle id="Ellipse_14-2" data-name="Ellipse 14" cx="45.5" cy="45.5" r="45.5" fill="#262262"/>
      </g>
      <g id="Group_71" data-name="Group 71" transform="translate(-248.469 1414.645)">
        <path id="Path_65" data-name="Path 65" d="M735.873-489.933c0-.5,0-.886,0-1.267,0-.932.2-1.13,1.154-1.13h6.2c.8,0,1.039-.24,1.039-1.056q0-7.343,0-14.687c0-.807-.238-1.042-1.052-1.042H728.527c-.812,0-1.045.234-1.046,1.048,0,.572-.01,1.145.005,1.716.006.228-.062.286-.291.294-1.241.047-1.24.055-1.24-1.2,0-.366,0-.731,0-1.1a2.267,2.267,0,0,1,2.265-2.283q7.653-.015,15.306,0a2.242,2.242,0,0,1,2.258,2.237q.019,7.677,0,15.354a2.254,2.254,0,0,1-2.306,2.239q-2.837.017-5.674-.005c-.337,0-.424.082-.414.416.026.826,0,1.653.012,2.479a.805.805,0,0,1-.51.876.786.786,0,0,1-.946-.352c-.83-1.044-1.673-2.079-2.5-3.129a.666.666,0,0,0-.6-.287c-1.494.012-2.988.01-4.482,0a2.289,2.289,0,0,1-2.417-2.423c0-.62.008-1.24,0-1.86,0-.218.045-.292.283-.3,1.248-.051,1.247-.06,1.247,1.194,0,.286,0,.572,0,.858,0,.752.25,1.006.992,1.007,1.621,0,3.242.011,4.863-.006a1.143,1.143,0,0,1,1.012.5C734.814-491.225,735.312-490.631,735.873-489.933Z" transform="translate(-177.545)" fill="#fff"/>
        <path id="Path_66" data-name="Path 66" d="M532.388-489.917c.574-.717,1.071-1.316,1.542-1.936a1.107,1.107,0,0,1,.974-.473c1.589.016,3.179.007,4.768.006.9,0,1.108-.214,1.108-1.131,0-.525.012-1.049-.005-1.574-.008-.251.037-.352.326-.356,1.2-.016,1.207-.027,1.2,1.189a10.184,10.184,0,0,1-.036,1.475A2.253,2.253,0,0,1,540-490.8c-1.51.011-3.02.014-4.529-.005a.794.794,0,0,0-.711.348c-.792,1.014-1.6,2.012-2.4,3.021-.254.321-.539.559-.973.41-.453-.156-.537-.525-.529-.958.014-.81-.012-1.622.012-2.432.009-.316-.086-.39-.392-.387-1.844.015-3.687.009-5.531.007a2.3,2.3,0,0,1-2.476-2.459q0-7.463,0-14.925a2.289,2.289,0,0,1,2.434-2.452q7.486,0,14.972,0a2.286,2.286,0,0,1,2.429,2.41c0,.62-.012,1.24.007,1.86.008.256-.077.309-.319.314-1.213.025-1.212.033-1.212-1.179,0-.334.005-.668,0-1a.779.779,0,0,0-.883-.876c-1.16-.006-2.32,0-3.481,0H525.067c-.847,0-1.072.225-1.072,1.07q0,7.32,0,14.639c0,.848.226,1.077,1.066,1.077h6.294c.784,0,1.03.243,1.032,1.015C532.389-490.881,532.388-490.458,532.388-489.917Z" transform="translate(0 -0.011)" fill="#fff"/>
        <path id="Path_67" data-name="Path 67" d="M668.169-456.875c-.571-.565-1.05-1.052-1.544-1.523-.176-.167-.181-.266-.005-.45.843-.883.836-.89,1.694-.031.7.7,1.4,1.39,2.089,2.091a.8.8,0,0,1,.005,1.348c-.884.891-1.781,1.769-2.657,2.668-.2.206-.322.239-.517,0-.242-.291-.707-.539-.728-.831-.022-.307.467-.55.729-.824s.567-.556.855-.836c-.124-.161-.277-.086-.4-.086-2.4-.006-4.8-.011-7.2,0-.331,0-.422-.074-.417-.412.016-1.122,0-1.122,1.129-1.122h6.97Z" transform="translate(-120.063 -44.611)" fill="#fff"/>
        <path id="Path_68" data-name="Path 68" d="M787.309-213.141c0,1.271-.011,2.543.008,3.814,0,.3-.083.363-.37.362-1.164,0-1.164.011-1.164-1.133,0-2.288.008-4.577-.009-6.865,0-.34.089-.416.418-.411,1.116.015,1.116,0,1.116,1.134Z" transform="translate(-229.744 -255.89)" fill="#fff"/>
        <path id="Path_69" data-name="Path 69" d="M847.162-213.178c0,1.271-.011,2.543.008,3.814,0,.31-.077.393-.389.391-1.144-.007-1.144.005-1.144-1.154,0-2.273.009-4.545-.009-6.817,0-.355.08-.447.438-.44,1.1.022,1.1,0,1.1,1.107Z" transform="translate(-281.968 -255.88)" fill="#fff"/>
        <path id="Path_70" data-name="Path 70" d="M636.608-432.853c0-.062,0-.014,0,.033-.105,1.278-.349,1.416-1.525.866-.075-.035-.168-.058-.145-.15a6.721,6.721,0,0,0,.165-1.079c.014-.193.2-.121.307-.114.4.025.806-.173,1.194.014C636.645-433.262,636.608-433.074,636.608-432.853Z" transform="translate(-98.129 -67.43)" fill="#fff"/>
        <path id="Path_71" data-name="Path 71" d="M553.355-432.937c.472-.146.68.056.717.637.043.671.1.668-.538.857-.849.252-.849.252-.982-.624S552.42-432.937,553.355-432.937Z" transform="translate(-26.194 -67.764)" fill="#fff"/>
        <path id="Path_72" data-name="Path 72" d="M632.676-457.177c.041.122-.029.17-.132.2s-.181.055-.271.083c-1.074.336-1.071.335-1.472-.711-.047-.122-.058-.2.069-.269.083-.044.156-.107.24-.151.309-.162.666-.635.884-.472A2.66,2.66,0,0,1,632.676-457.177Z" transform="translate(-94.495 -45.471)" fill="#fff"/>
        <path id="Path_73" data-name="Path 73" d="M556.465-456.9a6.276,6.276,0,0,0-.467,1.006.122.122,0,0,1-.107.048q-.615-.165-1.227-.342c-.123-.036-.112-.139-.081-.232a3.78,3.78,0,0,1,.15-.4c.154-.338.254-.926.547-.911.383.02.748.417,1.119.654A.129.129,0,0,1,556.465-456.9Z" transform="translate(-28.003 -46.174)" fill="#fff"/>
        <path id="Path_74" data-name="Path 74" d="M625.774-410.972c-.11-.122-.215-.236-.316-.353-.733-.849-.728-.856.085-1.639.12-.116.184-.063.274-.006.147.092.291.189.437.282.717.457.721.459.145,1.121A2.785,2.785,0,0,1,625.774-410.972Z" transform="translate(-89.393 -85.17)" fill="#fff"/>
        <path id="Path_75" data-name="Path 75" d="M562.638-411.724c-.317.355-.632.71-.957,1.056a.56.56,0,0,1-.189-.117,6.079,6.079,0,0,1-.818-.926c-.106-.142-.126-.246.055-.337.1-.05.185-.123.279-.181.266-.162.621-.513.782-.44.316.143.526.523.778.807A.668.668,0,0,1,562.638-411.724Z" transform="translate(-33.266 -85.479)" fill="#fff"/>
        <path id="Path_76" data-name="Path 76" d="M615.934-476.222a5.719,5.719,0,0,1,1.271.811c.084.072.023.138-.03.2-.072.084-.141.172-.213.257-.706.833-.726.833-1.6.16-.087-.067-.143-.123-.1-.229q.238-.544.483-1.084C615.781-476.179,615.825-476.247,615.934-476.222Z" transform="translate(-80.954 -30.031)" fill="#fff"/>
        <path id="Path_77" data-name="Path 77" d="M606.377-397.967c-.129.018-.217-.005-.221-.163a1.958,1.958,0,0,0-.041-.282c-.185-1.053-.115-1.147.936-1.348a.191.191,0,0,1,.251.136q.078.173.158.345c.434.936.434.937-.573,1.2C606.718-398.039,606.547-398.005,606.377-397.967Z" transform="translate(-72.915 -96.744)" fill="#fff"/>
        <path id="Path_78" data-name="Path 78" d="M594.291-480.673c.846.032.778-.1.64.851a1.008,1.008,0,0,0-.026.235c.042.428-.192.465-.546.449-.817-.039-.818-.021-.953-.8-.122-.706-.115-.714.623-.73C594.092-480.674,594.155-480.673,594.291-480.673Z" transform="translate(-61.844 -26.152)" fill="#fff"/>
        <path id="Path_79" data-name="Path 79" d="M583.068-398.86c-.008.058-.02.152-.036.246-.186,1.116-.179,1.1-1.3.734-.439-.142-.512-.287-.3-.71.451-.9.593-.977,1.51-.57C583.087-399.1,583.077-399.007,583.068-398.86Z" transform="translate(-51.351 -97.068)" fill="#fff"/>
        <path id="Path_80" data-name="Path 80" d="M570.076-473.431c-.273-.308-.55-.632-.841-.941-.128-.136-.137-.231.026-.332.067-.041.123-.1.186-.146,1.041-.789,1.032-.784,1.572.375.127.272.108.4-.175.537A6.238,6.238,0,0,0,570.076-473.431Z" transform="translate(-40.722 -30.752)" fill="#fff"/>
        <path id="Path_81" data-name="Path 81" d="M545.357-294.861a.751.751,0,0,0-.7-.816q-2.356-.345-4.714-.671a1.6,1.6,0,0,1-.7-.258c-1.1-.746-2.222-1.471-3.32-2.225a3.547,3.547,0,0,0-2.233-.669c-.481.022-.964,0-1.521,0a4.245,4.245,0,0,0,.535-6.394,4.2,4.2,0,0,0-6.049.1,4.224,4.224,0,0,0,.655,6.3h-.769a3.823,3.823,0,0,0-4.066,4.048q0,3.528,0,7.056c0,1.109,0,1.094,1.089,1.113.343.006.449-.062.447-.432-.019-2.59-.012-5.18-.01-7.771a2.3,2.3,0,0,1,2.494-2.488c2.415,0,4.831.006,7.246-.006a2.192,2.192,0,0,1,1.293.39c1.195.81,2.4,1.6,3.6,2.407a1.594,1.594,0,0,0,.7.277c1.4.189,2.794.41,4.194.593.521.068.267.435.309.681.057.341-.219.231-.378.232-1.239.007-2.479,0-3.718.008a1.242,1.242,0,0,1-.587-.149q-1.951-.984-3.909-1.956c-.825-.41-1.32-.1-1.321.831q0,3.1,0,6.2c0,1.214,0,1.2,1.208,1.186.295,0,.326-.113.323-.36-.013-.906,0-1.811,0-2.717v-3.331c1.1.554,2.144,1.08,3.189,1.6a1.479,1.479,0,0,0,.67.22c1.748,0,3.5,0,5.244-.006a.746.746,0,0,0,.812-.8C545.369-293.4,545.362-294.13,545.357-294.861Zm-15.658-5.4a2.675,2.675,0,0,1-2.65-2.676,2.676,2.676,0,0,1,2.663-2.663,2.672,2.672,0,0,1,2.675,2.7A2.679,2.679,0,0,1,529.7-300.259Z" transform="translate(-0.001 -177.576)" fill="#fff"/>
        <path id="Path_82" data-name="Path 82" d="M777.154-296.328a3.042,3.042,0,0,0-3.161-3.147c-.645,0-1.289,0-1.974,0,2.1-2.19,2.258-4.68.436-6.446a4.212,4.212,0,0,0-5.919.061,4.256,4.256,0,0,0,.53,6.386h-1.893A3.06,3.06,0,0,0,761.9-296.2q0,3.91,0,7.82c0,1.125,0,1.109,1.126,1.126.344,0,.409-.1.408-.422-.013-2.861-.009-5.722-.007-8.583a1.533,1.533,0,0,1,1.682-1.687q4.41,0,8.82,0a1.547,1.547,0,0,1,1.7,1.716q0,3.91,0,7.82c0,1.159,0,1.147,1.144,1.154.311,0,.391-.08.389-.39C777.151-290.543,777.161-293.435,777.154-296.328Zm-7.665-3.911a2.676,2.676,0,0,1-2.632-2.647,2.674,2.674,0,0,1,2.684-2.693,2.674,2.674,0,0,1,2.655,2.672A2.676,2.676,0,0,1,769.489-300.24Z" transform="translate(-208.91 -177.594)" fill="#fff"/>
        <path id="Path_83" data-name="Path 83" d="M767.5-473.966a.955.955,0,0,1-.011-1.292,1.245,1.245,0,0,0,.379-1.755q-.386-.682-.815-1.34a1.3,1.3,0,0,0-1.7-.534,1.086,1.086,0,0,1-1.242-.7,1.276,1.276,0,0,0-1.355-1.137q-.786-.011-1.572,0a1.282,1.282,0,0,0-1.353,1.14,1.074,1.074,0,0,1-1.251.683,1.3,1.3,0,0,0-1.664.508q-.456.7-.859,1.425a1.22,1.22,0,0,0,.37,1.681.923.923,0,0,1,.01,1.315,1.355,1.355,0,0,0-.576,1.092,1.419,1.419,0,0,0,.073.324,9.232,9.232,0,0,0,1.147,1.909,1.238,1.238,0,0,0,1.479.307,1.058,1.058,0,0,1,1.27.708,1.278,1.278,0,0,0,1.33,1.112c.524.01,1.048.008,1.572,0a1.282,1.282,0,0,0,1.38-1.163,1.109,1.109,0,0,1,1.225-.669,1.306,1.306,0,0,0,1.7-.519q.441-.676.836-1.383A1.231,1.231,0,0,0,767.5-473.966Zm-1.758-1.009a2.47,2.47,0,0,1-.007.759,1.194,1.194,0,0,0,.475,1.219c.241.171.216.3.065.487a1.068,1.068,0,0,0-.147.244c-.144.337-.306.435-.712.283a2.952,2.952,0,0,0-2.753,1.581c-.052.313-.152.4-.439.367a2.463,2.463,0,0,0-.476,0c-.265.021-.481,0-.441-.355a.254.254,0,0,0-.017-.093,3.064,3.064,0,0,0-2.83-1.474c-.308.117-.455.068-.577-.215a2,2,0,0,0-.244-.407c-.121-.161-.1-.254.069-.376a1.26,1.26,0,0,0,.514-1.3,3.113,3.113,0,0,1,.014-.806,1.189,1.189,0,0,0-.476-1.175c-.242-.17-.219-.3-.072-.489a1.156,1.156,0,0,0,.149-.242c.145-.334.3-.439.71-.284a2.946,2.946,0,0,0,2.75-1.582c.054-.315.166-.4.449-.364a1.454,1.454,0,0,0,.333,0c.346-.036.531.014.613.452.138.741,1.994,1.708,2.732,1.516.155-.04.327-.257.465-.093a6.826,6.826,0,0,1,.532.833c0,.128-.108.154-.179.21A1.29,1.29,0,0,0,765.747-474.975Z" transform="translate(-203.654 -26.105)" fill="#fff"/>
        <path id="Path_84" data-name="Path 84" d="M785.54-453.757a2.679,2.679,0,0,0-2.681,2.6,2.676,2.676,0,0,0,2.63,2.743,2.679,2.679,0,0,0,2.708-2.619A2.673,2.673,0,0,0,785.54-453.757Zm.005,3.813a1.151,1.151,0,0,1-1.16-1.136,1.151,1.151,0,0,1,1.148-1.148,1.151,1.151,0,0,1,1.136,1.16A1.152,1.152,0,0,1,785.545-449.944Z" transform="translate(-227.2 -49.637)" fill="#fff"/>
      </g>
    </g>
  </g>
</svg>
