<svg xmlns="http://www.w3.org/2000/svg" xmlns:xlink="http://www.w3.org/1999/xlink" width="135" height="135" viewBox="0 0 135 135">
  <defs>
    <clipPath id="clip-Training_Management">
      <rect width="135" height="135"/>
    </clipPath>
  </defs>
  <g id="Training_Management" data-name="Training Management" clip-path="url(#clip-Training_Management)">
    <g id="Group_80" data-name="Group 80" transform="translate(-1112 -560)">
      <circle id="Ellipse_23" data-name="Ellipse 23" cx="67.5" cy="67.5" r="67.5" transform="translate(1112 560)" fill="#60c9e6"/>
      <g id="Group_83" data-name="Group 83" transform="translate(2425.765 491.065)">
        <path id="Path_85" data-name="Path 85" d="M-1253.574,476.6c0,3.3-.036,6.6.025,9.9.016.862-.243,1.038-1.031.979a31.955,31.955,0,0,1-4.593-.187,6.749,6.749,0,0,1-5.313-6.476c-.038-4.723-.014-9.448,0-14.171a9.084,9.084,0,0,1,.5-3.014c.216-.609.083-.77-.555-.763-2.732.026-5.464,0-8.2.015a20.76,20.76,0,0,0-4.927.279,9.511,9.511,0,0,0-7.309,9.233,36.235,36.235,0,0,0,.162,6.9,6.574,6.574,0,0,0,4.6,5.135c.6.214.7.057.7-.528-.021-4.468,0-8.935-.026-13.4,0-.614.11-.822.777-.808,1.968.041,1.969.007,1.969,1.992,0,4.1.018,8.2-.018,12.293-.006.663.183.78.8.775,3.557-.031,7.114,0,10.671-.028.622,0,.881.089.862.809-.052,1.935-.012,1.936-1.931,1.936-3.842,0-7.683.007-11.525,0a9.521,9.521,0,0,1-9.776-9.821,50.484,50.484,0,0,1,.133-6.905,12.127,12.127,0,0,1,11.609-10.543c4.318-.12,8.647-.209,12.967.094a.751.751,0,0,0,.772-.352,12.17,12.17,0,0,1,10.526-5.258q4.951.021,9.9,0a12.209,12.209,0,0,1,10.538,5.244c.277.384.559.366.937.349a107.576,107.576,0,0,1,13.812.035,12.064,12.064,0,0,1,10.712,11.432,42.242,42.242,0,0,1-.124,7.755,9.418,9.418,0,0,1-9.1,7.955c-4.439.05-8.879,0-13.318.029-.529,0-.656-.132-.656-.657,0-2.088-.021-2.088,2.04-2.088,3.13,0,6.261-.034,9.39.024.8.015.9-.241.9-.943-.032-4.439,0-8.878-.031-13.318,0-.614.109-.822.777-.808,1.969.041,1.969.007,1.969,1.991,0,4.041.021,8.082-.018,12.122-.008.8.235.8.856.58a6.8,6.8,0,0,0,4.61-6.342,46.309,46.309,0,0,0-.133-7.073,9.408,9.408,0,0,0-9.021-8.057c-3.782-.107-7.569-.02-11.353-.036-.53,0-.686.1-.5.668a11.849,11.849,0,0,1,.535,3.78c-.008,4.325,0,8.651,0,12.976a6.818,6.818,0,0,1-7.185,7.167c-1.053,0-2.106-.015-3.158.009-.41.009-.6-.053-.594-.54q.025-10.372,0-20.745c0-.421.081-.58.553-.593,2.188-.063,2.187-.081,2.187,2.111,0,5.407.014,10.814-.017,16.22,0,.68.194.789.836.83a4.315,4.315,0,0,0,4.676-4.635c-.11-4.266-.026-8.536-.031-12.8a9.587,9.587,0,0,0-9.9-9.9q-5.079-.01-10.158,0a9.582,9.582,0,0,0-9.988,9.984q-.008,6.4,0,12.806a4.27,4.27,0,0,0,5.067,4.543c.617-.063.385-.459.386-.73.015-3.472.01-6.943.01-10.415,0-2.447.015-4.895-.012-7.342-.006-.519.122-.665.657-.666,2.087,0,2.087-.025,2.087,2.041Z" transform="translate(0 -309.552)" fill="#fff"/>
        <path id="Path_86" data-name="Path 86" d="M-1257.6,132.823c0-1.309-.009-2.618,0-3.927a4.1,4.1,0,0,1,4.243-4.257c1.508-.017,3.017-.026,4.524.01.494.012.681-.16.821-.614a22.29,22.29,0,0,1,1.812-4.3.655.655,0,0,0-.148-.939c-1.069-1.022-2.107-2.078-3.146-3.131a4.087,4.087,0,0,1-.019-6.184q2.674-2.7,5.372-5.372a4.172,4.172,0,0,1,6.274.008c1.014,1,2.027,2,3.01,3.025a.75.75,0,0,0,1.081.205,21.272,21.272,0,0,1,4.306-1.808.66.66,0,0,0,.56-.772c-.024-1.536-.021-3.073-.007-4.609a4.081,4.081,0,0,1,4.129-4.194q4.054-.051,8.109,0a4.085,4.085,0,0,1,4.148,4.176c.016,1.508.021,3.016-.007,4.524-.009.491.095.745.623.9a20.882,20.882,0,0,1,4.309,1.8.656.656,0,0,0,.943-.152c1.026-1.066,2.079-2.106,3.133-3.143a4.153,4.153,0,0,1,6.151-.039q2.8,2.749,5.552,5.554a4.046,4.046,0,0,1,.006,5.94q-1.57,1.627-3.2,3.2a.738.738,0,0,0-.192,1.071,20.342,20.342,0,0,1,1.771,4.228.753.753,0,0,0,.9.628c1.45-.03,2.9-.018,4.353-.009a4.114,4.114,0,0,1,4.348,4.326c.009,2.675.021,5.35-.006,8.024a4.1,4.1,0,0,1-3.414,4.006c-.466.072-.769.039-.686-.569a7.212,7.212,0,0,0,.008-1.194c-.016-.507-.084-.958.638-1.129.531-.126.728-.677.728-1.233,0-2.675.013-5.349-.005-8.024-.006-.961-.567-1.466-1.6-1.472-2.134-.014-4.268-.019-6.4.006-.529.006-.783-.095-.923-.682a24.283,24.283,0,0,0-3.074-7.347.7.7,0,0,1,.121-1.059c1.531-1.486,3.029-3.007,4.53-4.523a1.431,1.431,0,0,0,0-2.4q-2.646-2.666-5.306-5.317a1.459,1.459,0,0,0-2.416.018c-1.516,1.5-3.033,3-4.521,4.532-.337.347-.576.414-1,.146a24.448,24.448,0,0,0-7.5-3.136c-.509-.121-.6-.336-.6-.8.023-2.134.014-4.268.008-6.4,0-1.221-.485-1.712-1.7-1.716q-3.756-.013-7.512,0c-1.223,0-1.707.491-1.71,1.706-.006,2.134-.014,4.268.008,6.4,0,.464-.083.682-.6.8a24.574,24.574,0,0,0-7.5,3.139c-.44.279-.674.171-1-.158-1.475-1.5-2.969-2.986-4.463-4.469-.94-.933-1.6-.931-2.541,0q-2.63,2.621-5.251,5.251a1.429,1.429,0,0,0,0,2.4c1.523,1.535,3.046,3.07,4.593,4.581a.614.614,0,0,1,.117.925,24.626,24.626,0,0,0-3.144,7.5c-.123.514-.342.61-.81.605-2.105-.022-4.211-.013-6.317-.008-1.33,0-1.788.465-1.79,1.8,0,2.5.008,5.008-.006,7.512a1.39,1.39,0,0,0,1.027,1.561c.365.095.346.288.345.544a10.128,10.128,0,0,0,.013,1.534c.119.8-.326.749-.84.642a4.106,4.106,0,0,1-3.265-3.957C-1257.618,135.612-1257.6,134.218-1257.6,132.823Z" transform="translate(-26.024 0)" fill="#fff"/>
        <path id="Path_87" data-name="Path 87" d="M-1108.939,225.341a19.225,19.225,0,0,1,19.058,17.959c.079,1.195.079,1.195-1.088,1.195-1.5,0-1.5,0-1.675-1.457a16.406,16.406,0,0,0-13.781-14.734,16.467,16.467,0,0,0-18.6,12.876,14.112,14.112,0,0,0-.325,2.79c0,.392-.089.57-.517.533a6.006,6.006,0,0,0-1.278,0c-.761.1-.988-.146-.955-.945a19.2,19.2,0,0,1,17.21-18.066C-1110.242,225.439-1109.59,225.392-1108.939,225.341Z" transform="translate(-137.768 -111.663)" fill="#fff"/>
        <path id="Path_88" data-name="Path 88" d="M-1023.09,676.51c-1.62,0-3.24-.018-4.859.011-.479.009-.609-.124-.615-.607-.027-2.137-.044-2.136,2.069-2.136,2.728,0,5.457.017,8.185-.014.564-.006.7.153.7.705-.007,2.041.015,2.041-1.985,2.041Z" transform="translate(-223.656 -498.601)" fill="#fff"/>
        <path id="Path_89" data-name="Path 89" d="M-1040.118,325.209a8.236,8.236,0,0,0-8.223,8.174,8.186,8.186,0,0,0,8.163,8.211,8.191,8.191,0,0,0,8.224-8.154A8.23,8.23,0,0,0-1040.118,325.209Zm-.066,13.653a5.444,5.444,0,0,1-5.425-5.507,5.5,5.5,0,0,1,5.455-5.415,5.494,5.494,0,0,1,5.469,5.487A5.444,5.444,0,0,1-1040.184,338.862Z" transform="translate(-206.596 -197.838)" fill="#fff"/>
        <path id="Path_90" data-name="Path 90" d="M-1209.5,365.059a8.235,8.235,0,0,0-8.2,8.2,8.185,8.185,0,0,0,8.185,8.189,8.191,8.191,0,0,0,8.2-8.176A8.23,8.23,0,0,0-1209.5,365.059Zm-.08,13.653a5.445,5.445,0,0,1-5.388-5.543,5.5,5.5,0,0,1,5.49-5.379,5.5,5.5,0,0,1,5.433,5.523A5.445,5.445,0,0,1-1209.581,378.712Z" transform="translate(-60.457 -232.223)" fill="#fff"/>
        <path id="Path_91" data-name="Path 91" d="M-870.717,365.056a8.236,8.236,0,0,0-8.262,8.134,8.186,8.186,0,0,0,8.123,8.25,8.192,8.192,0,0,0,8.263-8.115A8.23,8.23,0,0,0-870.717,365.056Zm-.069,13.653a5.444,5.444,0,0,1-5.461-5.47,5.5,5.5,0,0,1,5.5-5.451,5.5,5.5,0,0,1,5.419,5.451A5.443,5.443,0,0,1-870.786,378.709Z" transform="translate(-352.736 -232.22)" fill="#fff"/>
      </g>
    </g>
  </g>
</svg>
